HIERARCHY
ROOT root
{
	OFFSET 0.000000 0.000000 0.000000
	CHANNELS 6 Xposition Yposition Zposition Zrotation Yrotation Xrotation
	JOINT lhip
	{
		OFFSET 0.058581 -0.082280 -0.017664
		CHANNELS 3 Zrotation Yrotation Xrotation
		JOINT lknee
		{
			OFFSET 0.043451 -0.386469 0.008037
			CHANNELS 3 Zrotation Yrotation Xrotation
			JOINT lankle
			{
				OFFSET -0.014790 -0.426874 -0.037428
				CHANNELS 3 Zrotation Yrotation Xrotation
				JOINT ltoe
				{
					OFFSET 0.041054 -0.060286 0.122042
					CHANNELS 3 Zrotation Yrotation Xrotation
					End Site
					{
						OFFSET 0.000000 0.000000 0.000000
					}
				}
			}
		}
	}
	JOINT rhip
	{
		OFFSET -0.060310 -0.090513 -0.013543
		CHANNELS 3 Zrotation Yrotation Xrotation
		JOINT rknee
		{
			OFFSET -0.043257 -0.383688 -0.004843
			CHANNELS 3 Zrotation Yrotation Xrotation
			JOINT rankle
			{
				OFFSET 0.019056 -0.420046 -0.034562
				CHANNELS 3 Zrotation Yrotation Xrotation
				JOINT rtoe
				{
					OFFSET -0.034840 -0.062106 0.130323
					CHANNELS 3 Zrotation Yrotation Xrotation
					End Site
					{
						OFFSET 0.000000 0.000000 0.000000
					}
				}
			}
		}
	}
	JOINT lowerback
	{
		OFFSET 0.004439 0.124404 -0.038385
		CHANNELS 3 Zrotation Yrotation Xrotation
		JOINT upperback
		{
			OFFSET 0.004488 0.137956 0.026820
			CHANNELS 3 Zrotation Yrotation Xrotation
			JOINT chest
			{
				OFFSET -0.002265 0.056032 0.002855
				CHANNELS 3 Zrotation Yrotation Xrotation
				JOINT lowerneck
				{
					OFFSET -0.013390 0.211636 -0.033468
					CHANNELS 3 Zrotation Yrotation Xrotation
					JOINT upperneck
					{
						OFFSET 0.010113 0.088937 0.050410
						CHANNELS 3 Zrotation Yrotation Xrotation
						End Site
						{
							OFFSET 0.000000 0.000000 0.000000
						}
					}
				}
				JOINT lclavicle
				{
					OFFSET 0.071702 0.114000 -0.018898
					CHANNELS 3 Zrotation Yrotation Xrotation
					JOINT lshoulder
					{
						OFFSET 0.122921 0.045205 -0.019046
						CHANNELS 3 Zrotation Yrotation Xrotation
						JOINT lelbow
						{
							OFFSET 0.255332 -0.015649 -0.022946
							CHANNELS 3 Zrotation Yrotation Xrotation
							JOINT lwrist
							{
								OFFSET 0.265709 0.012698 -0.007375
								CHANNELS 3 Zrotation Yrotation Xrotation
								End Site
								{
									OFFSET 0.000000 0.000000 0.000000
								}
							}
						}
					}
				}
				JOINT rclavicle
				{
					OFFSET -0.082954 0.112472 -0.023707
					CHANNELS 3 Zrotation Yrotation Xrotation
					JOINT rshoulder
					{
						OFFSET -0.113228 0.046853 -0.008472
						CHANNELS 3 Zrotation Yrotation Xrotation
						JOINT relbow
						{
							OFFSET -0.260127 -0.014369 -0.031269
							CHANNELS 3 Zrotation Yrotation Xrotation
							JOINT rwrist
							{
								OFFSET -0.269108 0.006794 -0.006027
								CHANNELS 3 Zrotation Yrotation Xrotation
								End Site
								{
									OFFSET 0.000000 0.000000 0.000000
								}
							}
						}
					}
				}
			}
		}
	}
}
MOTION
Frames: 6
Frame Time: 0.033333
0.988874 0.754620 0.981437 -86.704762 4.211628 87.216935 2.799188 -0.407090 6.166314 -2.343388 -13.248223 2.363518 6.436127 9.506956 -19.456463 0.000000 -0.000000 0.000000 2.865241 -1.523815 1.786085 2.920491 5.022903 8.264125 2.145731 -3.679442 -13.828951 0.000000 -0.000000 0.000000 -1.785938 1.531594 3.185216 1.414765 -2.306012 1.430726 1.743752 -1.729415 3.823523 3.751110 2.429715 -7.294115 3.065824 -2.041335 -2.721920 -26.884269 1.752530 2.136243 -60.934185 -6.310529 7.284408 11.223308 -19.516500 0.628466 -0.693815 -1.912932 -9.234144 24.890277 -0.420576 1.551128 61.599535 2.532836 11.534022 -13.311123 20.462060 -2.091426 6.211324 0.229024 -8.391006 
0.989399 0.754439 0.981013 -86.831537 4.231092 87.167210 2.767002 -0.736391 6.394243 -2.337603 -12.971600 2.009313 6.546075 9.700358 -19.235989 0.000000 -0.000000 0.000000 2.802606 -1.199185 1.718494 3.113540 4.884199 8.302377 1.813374 -3.986437 -13.654199 0.000000 -0.000000 0.000000 -1.857794 1.698418 3.292411 1.633748 -2.276532 2.036140 1.709791 -1.633104 3.163655 4.041442 2.183092 -7.565428 3.021885 -2.120548 -2.964738 -27.100667 1.430013 2.528137 -61.368629 -6.253185 7.250074 11.607654 -19.247885 2.466874 -7.842401 -2.285948 -12.079797 24.711912 -0.462424 1.721416 61.930269 2.690222 11.536014 -13.874382 20.426990 -1.909607 8.303286 0.029279 -9.086117 
0.989605 0.754589 0.980692 -86.660678 4.377612 87.095458 3.028871 -0.155919 6.156301 -2.397311 -13.280638 2.519190 6.210133 9.110531 -19.346244 0.000000 -0.000000 0.000000 2.937547 -1.496260 1.861852 3.177878 5.059200 8.187635 1.978302 -3.862806 -13.686523 0.000000 -0.000000 0.000000 -1.920212 1.898050 3.298419 1.851040 -2.286219 2.263106 1.756241 -1.656815 3.542850 4.494045 2.647605 -8.948668 2.831333 -2.868693 -2.276648 -27.184941 0.801323 2.135720 -61.204587 -5.595572 9.131778 10.166929 -18.329320 7.317876 -2.466729 -2.613284 -5.222160 24.878163 -0.044061 1.088657 61.633282 2.129561 11.519822 -13.753422 20.496868 -2.101203 6.293835 0.338588 -8.803616 
0.991536 0.754840 0.980457 -87.239489 4.256266 87.352994 2.871176 -0.224968 5.799228 -2.439730 -12.961986 2.460985 6.347808 9.446661 -19.276102 0.000000 -0.000000 0.000000 2.832034 -1.036764 0.991525 3.219748 4.981901 8.892292 1.983338 -3.751176 -13.827052 0.000000 -0.000000 0.000000 -2.044745 2.100904 3.307598 1.858950 -2.028699 2.020059 1.776876 -1.572017 3.571513 4.528962 2.634215 -9.085197 2.906055 -3.083621 -2.231520 -27.051094 0.839540 2.005402 -61.241668 -5.694490 9.220838 10.110144 -18.529267 7.029713 -2.318783 -2.404265 -5.236797 24.908134 0.030413 1.021182 61.647439 2.248218 11.636585 -13.770375 20.390715 -2.268579 6.273921 0.359068 -8.796506 
0.991398 0.754774 0.980476 -87.126210 4.234448 87.322370 2.833969 -0.262383 5.933250 -2.369719 -13.014729 2.293470 6.265963 9.372774 -19.193608 0.000000 -0.000000 0.000000 2.815256 -1.087362 1.156116 3.147152 4.917340 8.694824 2.044845 -3.753461 -13.765441 0.000000 -0.000000 0.000000 -2.049827 2.100172 3.289910 1.848016 -2.073371 2.071302 1.784875 -1.591052 3.563164 4.566933 2.521174 -9.118168 2.964131 -3.195195 -2.234703 -27.030243 0.796912 2.028880 -61.265652 -5.738741 9.291338 10.099454 -18.723212 7.068816 -2.215984 -2.337978 -5.042097 25.001572 0.048772 0.960924 61.534509 2.171931 11.622398 -13.653097 20.512822 -2.340356 6.321102 0.335773 -8.759545 
0.992306 0.754940 0.980416 -87.320547 4.166195 87.425829 2.738587 -0.265660 5.716118 -2.386494 -12.816235 2.406418 6.282128 9.419190 -19.205001 0.000000 -0.000000 0.000000 2.731421 -0.788844 0.877609 3.230159 4.844247 8.879408 2.098835 -3.799299 -13.782723 0.000000 -0.000000 0.000000 -2.083779 2.166487 3.225650 1.844226 -1.999330 2.071377 1.733329 -1.575560 3.632434 4.722033 2.457998 -9.313417 2.971236 -3.398510 -2.191135 -27.024734 0.874053 1.852319 -61.207665 -5.848617 9.416415 9.968273 -18.935980 7.202223 -2.456751 -2.551081 -4.916416 25.118633 0.013810 0.813083 61.518457 2.290444 11.765166 -13.592493 20.616930 -2.434283 6.389263 0.418197 -8.777915 
